<?xml version="1.0" encoding="utf-8" ?>
<svg xmlns="http://www.w3.org/2000/svg" xmlns:xlink="http://www.w3.org/1999/xlink" width="307" height="294">
	<path fill="#E5B3FE" transform="scale(0.39974 0.383757)" d="M-0 -0L768 0L768 768L-0 768L0 -0Z"/>
	<path fill="#C934DF" transform="scale(0.39974 0.383757)" d="M117.4 505.851C115.699 505.373 114.12 504.69 112.562 503.861C111.78 503.445 109.983 503.823 109.034 503.87C107.286 503.956 105.079 504.051 103.76 502.711C102.354 501.283 101.738 498.482 101.774 496.5C101.806 494.748 101.969 493.737 103.243 492.493L103.69 493.098C103.382 494.725 102.756 496.822 103.688 498.334C103.95 498.76 104.267 499.064 104.625 499.411C106.2 499.42 106.459 499.333 107.812 498.52L107.845 498.191C107.996 496.758 108.229 495.158 108.918 493.875L109.267 493.68L109.372 494.007C109.059 495.692 108.722 496.671 109.704 498.214C110.549 499.542 111.929 500.215 113.29 500.913C116.078 501.55 118.808 501.095 121.625 500.892L121.368 501.112C120.469 501.869 119.6 502.399 118.548 502.917C118.05 503.903 117.663 504.776 117.4 505.851Z"/>
	<path fill="#FFCBF2" transform="scale(0.39974 0.383757)" d="M113.543 484.772L123.804 483.629C121.859 485.259 120.298 486.726 118.849 488.821L118.819 488.859C117.262 491.579 115.538 494.714 114.452 497.647C114.181 498.945 114.181 499.912 113.29 500.913C111.929 500.215 110.549 499.542 109.704 498.214C108.722 496.671 109.059 495.692 109.372 494.007L109.267 493.68L108.918 493.875C108.229 495.158 107.996 496.758 107.845 498.191L107.812 498.52C106.459 499.333 106.2 499.42 104.625 499.411C104.267 499.064 103.95 498.76 103.688 498.334C102.756 496.822 103.382 494.725 103.69 493.098L103.801 493.114L104.67 491.25C106.899 486.91 109.12 486.115 113.543 484.772Z"/>
	<path fill="#7572E2" transform="scale(0.39974 0.383757)" d="M122.289 507.47C123.315 507.83 124.142 507.947 125.227 508.032C125.523 520.518 128.392 532.771 129.543 545.178C130.349 553.866 129.558 562.882 129.364 571.603C128.192 571.407 128.168 571.328 127.157 571.924L122.289 507.47Z"/>
	<path fill="#51A0CC" transform="scale(0.39974 0.383757)" d="M639.74 506.395L641.733 506.579L636.336 572.389C635.798 571.361 635.688 571.009 634.688 570.366L633.24 571.037C636.307 549.553 635.451 527.798 639.74 506.395Z"/>
	<path fill="#FFCBF2" transform="scale(0.39974 0.383757)" d="M112.332 483.805L111.006 484.172C106.593 485.532 100.18 485.611 95.8125 484.077C93.0783 483.116 91.1887 481.349 90.0209 478.688C89.0533 476.483 88.8346 473.342 89.7323 471.069L89.9199 470.625C91.1168 467.689 93.353 465.166 96.135 463.626C101.65 460.572 108.744 459.172 114.897 461.028C119.675 462.47 122.531 466.109 124.854 470.311C124.999 471.14 125.172 471.13 124.688 471.875C123.704 470.856 122.706 469.782 121.566 468.938C119.517 467.42 115.236 465.083 112.725 465.512C112.102 465.618 111.697 465.659 111.061 465.559L110.395 465.445C108.56 464.451 105.722 464.636 103.778 465.226C103.157 465.415 102.574 465.728 102.015 466.053C100.432 468.116 97.2687 469.638 94.8776 470.609C94.0126 471.11 93.8913 471.043 93.6284 471.999C93.2275 473.458 93.2341 475.137 94.0995 476.438L95.2088 477.562C98.7796 479.616 102.501 479.843 106.514 480.225C110.092 480.566 113.603 480.9 117.202 480.745L121.153 480.938L120.938 481.453L118.781 482.299C116.459 482.597 114.523 482.913 112.332 483.805Z"/>
	<path fill="#23C1D0" transform="scale(0.39974 0.383757)" d="M667.538 524.812C668.475 524.592 668.612 524.55 669.514 524.859C670.879 527.212 669.92 532.795 669.503 535.492C668.602 541.317 666.102 546.695 661.141 550.139C657.566 552.621 654.177 553.023 650.014 552.233C648.582 551.386 647.615 550.673 646.688 549.269C646.49 548.433 646.428 547.915 646.696 547.075C649.056 539.676 655.331 533.53 661.355 528.981C663.342 527.48 665.286 525.903 667.538 524.812Z"/>
	<defs>
		<linearGradient id="gradient_0" gradientUnits="userSpaceOnUse" x1="659.76898" y1="475.72699" x2="661.96002" y2="457.496">
			<stop offset="0" stop-color="#FEEEFD"/>
			<stop offset="1" stop-color="white"/>
		</linearGradient>
	</defs>
	<path fill="url(#gradient_0)" transform="scale(0.39974 0.383757)" d="M645.436 467.643C646.458 463.885 647.716 459.459 651.472 457.504C655.068 455.632 660.986 456.773 664.635 458.094C668.815 459.607 673.477 462.267 675.408 466.431C676.12 467.966 676.497 470.285 675.705 471.855C674.524 474.198 670.451 476.65 667.957 477.14C664.038 477.909 659.453 475.536 655.485 475.217C655.048 474.753 653.893 474.706 653.252 474.576C653.039 474.029 653.122 474.335 653.041 473.648L651.723 473.635C650.544 473.771 649.367 473.633 648.188 473.548L647.906 472.666L646.688 472.175C646.406 470.959 646.022 470.169 645.347 469.117L645.117 468.765L645.436 467.643Z"/>
	<path fill="#ECBCFD" transform="scale(0.39974 0.383757)" d="M663.723 463.827L663.971 464.11C666.167 466.47 670.22 465.446 670.617 469.502C669.346 471.08 666.865 472.161 664.875 472.467L663.059 472.523C663.066 472.111 663.487 471.934 663.55 471.562C663.627 471.105 663.476 470.637 663.439 470.174L660.197 470.257L662.73 469.554C663.619 469.392 663.463 469.323 663.974 468.642L663.75 468.029L662.11 467.742L662.949 467.524L663.294 466.845C663.154 465.614 663.071 464.956 663.723 463.827Z"/>
	<path fill="#F3C4FB" transform="scale(0.39974 0.383757)" d="M662.949 467.524C664.869 467.332 665.974 468.181 667.707 468.938L667.846 469.5C666.832 470.278 665.823 470.542 664.5 470.452C663.994 470.418 663.857 470.337 663.439 470.174L660.197 470.257L662.73 469.554C663.619 469.392 663.463 469.323 663.974 468.642L663.75 468.029L662.11 467.742L662.949 467.524Z"/>
	<path fill="#E2AFFF" transform="scale(0.39974 0.383757)" d="M647.906 472.666L651.776 463.688C652.422 462.491 653.35 461.456 654.712 461.128C657.992 460.337 661.027 462.194 663.723 463.827C663.071 464.956 663.154 465.614 663.294 466.845L662.949 467.524L662.11 467.742L663.75 468.029L663.974 468.642C663.463 469.323 663.619 469.392 662.73 469.554L660.197 470.257L663.439 470.174C663.476 470.637 663.627 471.105 663.55 471.562C663.487 471.934 663.066 472.111 663.059 472.523L653.041 473.648L651.723 473.635C650.544 473.771 649.367 473.633 648.188 473.548L647.906 472.666Z"/>
	<path fill="#FFCBF2" transform="scale(0.39974 0.383757)" d="M662.11 467.742L663.75 468.029L663.974 468.642C663.463 469.323 663.619 469.392 662.73 469.554L660.197 470.257C659.079 470.53 657.922 470.756 656.849 471.169L655.5 470.891L655.226 470.438C657.442 469.216 659.709 468.508 662.11 467.742Z"/>
	<path fill="#FA71FA" transform="scale(0.39974 0.383757)" d="M660.197 470.257L663.439 470.174C663.476 470.637 663.627 471.105 663.55 471.562C663.487 471.934 663.066 472.111 663.059 472.523L653.041 473.648L651.723 473.635L651.938 473.061L651.44 472.671C652.626 471.825 654.749 471.971 656.186 471.43L656.849 471.169C657.922 470.756 659.079 470.53 660.197 470.257Z"/>
	<path fill="#FFFEFE" transform="scale(0.39974 0.383757)" d="M592.684 337.426L595.438 337.441L607.108 337.585C608.474 342.314 610.48 346.875 612.224 351.48L620.812 373.459L625.224 383.264C626.004 384.933 627.353 387.163 627.652 388.967L609.367 389.038C608.205 388.149 605.704 375.86 605.077 373.605C601.679 361.382 597.182 349.282 592.684 337.426Z"/>
	<path fill="#FFFEFE" transform="scale(0.39974 0.383757)" d="M160.395 337.394L172.949 337.388L173.523 337.875C172.653 341.094 171.09 344.19 169.907 347.317L161.055 373.272C159.836 377.403 158.211 382.331 158.154 386.661L157.312 387.428L156.684 387.255C154.46 386.692 150.864 386.773 148.607 387.232L137.225 387.338C137.508 385.128 139.532 382.339 140.566 380.315L144.312 372.188L158.437 337.738L160.395 337.394Z"/>
	<path fill="#FA71FA" transform="scale(0.39974 0.383757)" d="M340.189 626.663L378.753 626.685C384.119 627.079 389.632 626.852 395.016 626.86L422.532 626.868L430.239 626.87C430.707 626.874 432.191 626.746 432.562 626.895C432.781 626.983 432.941 627.186 433.081 627.375L433.538 628.462L433.83 628.64C434.479 629.043 435.023 629.337 435.441 630L434.657 630.749L438.781 630.817L438.71 640.449L330.067 640.358L330.072 630.188C331.115 629.669 332.086 629.938 333.232 630.012L332.579 628.875L332.824 628.341C335.324 626.843 337.376 626.951 340.189 626.663Z"/>
	<path fill="#FFCBF2" transform="scale(0.39974 0.383757)" d="M340.189 626.663L378.753 626.685C384.119 627.079 389.632 626.852 395.016 626.86L422.532 626.868L430.239 626.87C430.707 626.874 432.191 626.746 432.562 626.895C432.781 626.983 432.941 627.186 433.081 627.375L433.538 628.462L433.83 628.64C434.479 629.043 435.023 629.337 435.441 630L434.657 630.749L333.232 630.012L332.579 628.875L332.824 628.341C335.324 626.843 337.376 626.951 340.189 626.663Z"/>
	<path fill="#F3C4FB" transform="scale(0.39974 0.383757)" d="M126.379 467.606C126.725 465.444 127.173 463.034 128.097 461.037C129.647 457.688 131.61 455.053 135.238 453.831C139.14 452.517 142.597 452.848 146.248 454.688L147.037 456.736C150.191 456.759 153.535 456.407 156.336 458.078L156.569 458.483C159.127 462.813 163.234 465.56 161.73 471.388L160.762 474.415C159.699 477.323 157.708 479.683 154.873 481.003C151.827 482.42 148.712 482.084 145.575 482.894L145.582 482.941C146.662 482.991 147.619 482.99 148.687 482.816L148.44 483.323C146.928 483.35 143.112 483.029 142.022 484.066C142.788 484.958 143.847 486.816 144.75 487.408L145.406 487.219L144.844 486.752C145.661 486.053 145.962 486.187 147 486.283L148.498 486.469C147.972 486.803 147.467 487.062 146.906 487.332C146.242 487.871 145.773 488.222 145.42 489.015C145.028 491.461 144.532 494.42 142.4 496.012C140.774 497.226 137.002 498.148 134.998 497.84C133.219 497.565 132.291 496.12 131.24 494.812L130.035 493.314C127.778 497.064 125.865 499.41 121.625 500.892C118.808 501.095 116.078 501.55 113.29 500.913C114.181 499.912 114.181 498.945 114.452 497.647C115.538 494.714 117.262 491.579 118.819 488.859L118.849 488.821C120.298 486.726 121.859 485.259 123.804 483.629L113.543 484.772L112.7 484.652L112.332 483.805C114.523 482.913 116.459 482.597 118.781 482.299L120.938 481.453L121.153 480.938L117.202 480.745C113.603 480.9 110.092 480.566 106.514 480.225C102.501 479.843 98.7796 479.616 95.2088 477.562L94.0995 476.438C93.2341 475.137 93.2275 473.458 93.6284 471.999C93.8913 471.043 94.0126 471.11 94.8776 470.609C97.2687 469.638 100.432 468.116 102.015 466.053C102.574 465.728 103.157 465.415 103.778 465.226C105.722 464.636 108.56 464.451 110.395 465.445L111.061 465.559C111.697 465.659 112.102 465.618 112.725 465.512C115.236 465.083 119.517 467.42 121.566 468.938C122.706 469.782 123.704 470.856 124.688 471.875C125.172 471.13 124.999 471.14 124.854 470.311C125.215 470.787 125.246 470.936 125.812 471.184L126.379 467.606Z"/>
	<path fill="#FA71FA" transform="scale(0.39974 0.383757)" d="M140.709 470.908L145.688 470.305L145.82 470.951C142.809 473.814 135.53 474.564 131.528 475.166L130.923 475.095L130.663 474.2C132.512 472.504 138.117 471.719 140.709 470.908Z"/>
	<path fill="#FA71FA" transform="scale(0.39974 0.383757)" d="M135.421 476.276L143.157 475.438C145.603 475.064 148.138 474.024 150.59 474.562L150.992 475.313C149.891 477.117 148.433 477.814 146.412 478.325C142.997 479.188 139.12 478.869 135.61 478.855C139.078 480.925 141.396 482.89 145.582 482.941C146.662 482.991 147.619 482.99 148.687 482.816L148.44 483.323C146.928 483.35 143.112 483.029 142.022 484.066C142.788 484.958 143.847 486.816 144.75 487.408L145.406 487.219L144.844 486.752C145.661 486.053 145.962 486.187 147 486.283L148.498 486.469C147.972 486.803 147.467 487.062 146.906 487.332C146.242 487.871 145.773 488.222 145.42 489.015C144.719 488.475 144.145 487.803 143.642 487.078C141.683 484.252 139.192 482.437 136.496 480.375C134.506 478.853 132.095 477.983 129.834 476.919C131.602 476.805 133.342 476.71 135.082 476.35L135.421 476.276Z"/>
	<path fill="#FA71FA" transform="scale(0.39974 0.383757)" d="M99.1381 476.301C103.066 476.963 107.314 477.76 111.299 477.781L111.698 477.845C116.338 478.522 121.489 478.172 126.188 478.095L126.372 478.688C124.118 480.806 120.167 480.26 117.202 480.745C113.603 480.9 110.092 480.566 106.514 480.225C102.501 479.843 98.7796 479.616 95.2088 477.562L95.3999 476.908C96.4972 476.104 97.8381 476.302 99.1381 476.301Z"/>
	<path fill="#E2AFFF" transform="scale(0.39974 0.383757)" d="M118.781 482.299L126.438 481.685C126.576 483.587 126.736 485.454 126.626 487.363L126.167 487.584C124.302 488.506 123.454 489.138 122.4 490.911C121.228 492.882 119.386 494.239 117.965 496.013C117.226 496.936 116.254 497.608 115.312 498.309L114.452 497.647C115.538 494.714 117.262 491.579 118.819 488.859L118.849 488.821C120.298 486.726 121.859 485.259 123.804 483.629L113.543 484.772L112.7 484.652L112.332 483.805C114.523 482.913 116.459 482.597 118.781 482.299Z"/>
	<path fill="#FFCBF2" transform="scale(0.39974 0.383757)" d="M126.379 467.606C126.725 465.444 127.173 463.034 128.097 461.037C129.647 457.688 131.61 455.053 135.238 453.831C139.14 452.517 142.597 452.848 146.248 454.688L147.037 456.736C150.191 456.759 153.535 456.407 156.336 458.078L156.569 458.483C159.127 462.813 163.234 465.56 161.73 471.388L160.762 474.415L159.941 474.352L159.562 473.583C159.769 472.117 159.936 470.606 159.802 469.125C159.689 467.879 159.288 466.727 158.271 465.938C157.74 465.525 154.846 463.397 154.353 463.39C152.253 463.361 149.585 465.373 147.375 465.602L146.704 464.785L144.502 466.058L142.688 467.04L142.149 465.456C140.217 467.652 138.247 469.247 136.057 471.189C137.625 471.004 139.13 470.862 140.709 470.908C138.117 471.719 132.512 472.504 130.663 474.2L130.923 475.095L128.922 476.117L129.134 476.66C128.604 476.978 128.621 477.139 127.984 476.966C127.31 476.783 127.564 476.876 126.938 476.477L126.422 476.841C125.071 477.721 123.276 477.66 121.723 477.695C118.399 477.769 114.559 477.319 111.299 477.781C107.314 477.76 103.066 476.963 99.1381 476.301C97.8381 476.302 96.4972 476.104 95.3999 476.908L95.2088 477.562L94.0995 476.438C93.2341 475.137 93.2275 473.458 93.6284 471.999C93.8913 471.043 94.0126 471.11 94.8776 470.609C97.2687 469.638 100.432 468.116 102.015 466.053C102.574 465.728 103.157 465.415 103.778 465.226C105.722 464.636 108.56 464.451 110.395 465.445L111.061 465.559C111.697 465.659 112.102 465.618 112.725 465.512C115.236 465.083 119.517 467.42 121.566 468.938C122.706 469.782 123.704 470.856 124.688 471.875C125.172 471.13 124.999 471.14 124.854 470.311C125.215 470.787 125.246 470.936 125.812 471.184L126.379 467.606Z"/>
	<path fill="#E2AFFF" transform="scale(0.39974 0.383757)" d="M145.887 462.467C148.088 460.917 150.728 460.5 153.335 460.107C151.673 461.946 148.717 463.077 146.704 464.785L144.502 466.058C144.21 465.286 144.325 465.699 144.179 464.812L145.887 462.467Z"/>
	<path fill="#ECBCFD" transform="scale(0.39974 0.383757)" d="M95.2088 477.562L94.0995 476.438C93.2341 475.137 93.2275 473.458 93.6284 471.999C93.8913 471.043 94.0126 471.11 94.8776 470.609L102.568 472.11C102.635 472.832 102.651 472.848 103.125 473.473C104.899 473.602 106.771 473.614 108.513 473.96C105.94 473.993 98.6223 473.303 96.776 474.562L96.9063 475.336L99.1381 476.301C97.8381 476.302 96.4972 476.104 95.3999 476.908L95.2088 477.562Z"/>
	<path fill="#ECBCFD" transform="scale(0.39974 0.383757)" d="M128.269 474.014C129.717 470.548 129.595 466.448 131.084 462.855C132.017 460.606 133.364 458.342 135.704 457.392C137.112 456.82 138.797 456.795 140.191 457.439C141.473 458.031 143.759 459.885 143.639 461.438C143.558 462.498 142.656 463.293 143.062 464.377C144.141 464.049 145.02 463.164 145.887 462.467L144.179 464.812C144.325 465.699 144.21 465.286 144.502 466.058L142.688 467.04L142.149 465.456C140.217 467.652 138.247 469.247 136.057 471.189C137.625 471.004 139.13 470.862 140.709 470.908C138.117 471.719 132.512 472.504 130.663 474.2L130.923 475.095L128.922 476.117C128.428 475.391 128.364 474.878 128.269 474.014Z"/>
	<path fill="#F3C4FB" transform="scale(0.39974 0.383757)" d="M102.015 466.053C102.574 465.728 103.157 465.415 103.778 465.226C105.722 464.636 108.56 464.451 110.395 465.445L111.061 465.559C111.697 465.659 112.102 465.618 112.725 465.512C115.236 465.083 119.517 467.42 121.566 468.938C122.706 469.782 123.704 470.856 124.688 471.875C125.172 471.13 124.999 471.14 124.854 470.311C125.215 470.787 125.246 470.936 125.812 471.184L126.379 467.606C126.375 469.905 126.222 472.263 126.752 474.511L126.697 475.419C125.975 475.688 126.117 475.754 125.326 475.509C123.081 474.812 120.565 475.472 118.294 474.802L111.175 474.051L108.513 473.96C106.771 473.614 104.899 473.602 103.125 473.473C102.651 472.848 102.635 472.832 102.568 472.11L94.8776 470.609C97.2687 469.638 100.432 468.116 102.015 466.053Z"/>
	<path fill="#DEAAFF" transform="scale(0.39974 0.383757)" d="M113.929 472.82C115.973 472.956 120.827 472.916 122.214 474.375C121.095 474.876 119.521 474.745 118.294 474.802L111.175 474.051C112.358 474.04 113.781 474.184 114.857 473.672L113.929 472.82Z"/>
	<path fill="#FA71FA" transform="scale(0.39974 0.383757)" d="M102.568 472.11C106.637 471.754 109.966 472.476 113.929 472.82L114.857 473.672C113.781 474.184 112.358 474.04 111.175 474.051L108.513 473.96C106.771 473.614 104.899 473.602 103.125 473.473C102.651 472.848 102.635 472.832 102.568 472.11Z"/>
	<path fill="#ECBCFD" transform="scale(0.39974 0.383757)" d="M102.015 466.053C102.574 465.728 103.157 465.415 103.778 465.226C105.722 464.636 108.56 464.451 110.395 465.445C110.5 466.589 110.816 467.841 110.184 468.863C108.096 469.67 105.84 469.373 103.688 470.173C102.382 469.372 102.371 467.521 102.015 466.053Z"/>
	<path fill="#23C1D0" transform="scale(0.39974 0.383757)" d="M94.7275 595.254C93.6609 592.829 93.4197 589.513 93.0626 586.883C92.2245 580.708 91.3801 574.559 91.5315 568.312C91.8943 567.572 92.312 567.115 93.1103 566.812C95.9162 565.748 101.515 569.736 103.831 571.126L105.405 568.277C106.479 566.585 107.868 564.79 109.947 564.375C113.151 563.737 116.556 566.626 119.157 568.223C118.739 564.174 117.786 558.253 115.451 554.857C114.627 553.658 113.362 552.836 112.348 551.812C111.364 550.819 110.401 549.231 109.096 548.664C108.239 548.293 107.225 548.181 106.329 547.842C103.763 546.87 101.864 545.534 100.025 543.505C95.4342 538.443 94.4114 530.238 94.6714 523.688L95.4375 523.145L97.6875 523.523C103.947 525.222 108.249 530.482 111.423 535.737C111.952 527.923 110.156 519.947 109.539 512.142C111.265 512.216 113.287 512.041 114.792 512.964C116.53 515.537 116.996 519.17 117.53 522.188L119.99 539.625C121.425 550.172 123.164 560.476 123.883 571.114C123.965 572.328 123.761 573.825 124.688 574.632C125.871 573.924 126.408 573.061 127.157 571.924C128.168 571.328 128.192 571.407 129.364 571.603C129.769 572.936 129.762 573.581 130.875 574.459C132.74 573.515 134.201 570.132 135.478 568.417C136.638 566.86 138.099 565.481 139.68 564.364C142.491 567.198 143.673 570.258 145.158 573.904C147.575 571.343 151.742 566.189 155.625 566.518C156.446 566.588 156.622 566.702 157.079 567.36C158.662 569.637 158.357 573.574 158.434 576.276C158.612 582.483 158.89 589.127 158.404 595.313C156.021 594.593 152.481 594.946 149.947 594.938L133.504 594.908L109.252 594.908C104.476 594.924 99.4602 594.688 94.7275 595.254Z"/>
	<path fill="#23C1D0" transform="scale(0.39974 0.383757)" d="M618.382 575.637C617.79 573.013 617.74 570.004 617.4 567.317C615.278 550.535 614.958 533.664 614.799 516.767C614.733 509.705 614.226 502.344 614.923 495.32C616.673 497.327 618.341 499.537 620.447 501.187C625.915 505.47 633.117 505.794 639.74 506.395C635.451 527.798 636.307 549.553 633.24 571.037L634.688 570.366C635.688 571.009 635.798 571.361 636.336 572.389C637.029 573.509 637.378 573.998 638.625 574.472C639.725 573.932 639.774 572.931 640.216 571.817C641.126 569.522 643.452 567.484 645.73 566.589C646.968 566.102 648.995 566.058 650.211 566.63C651.421 567.199 652.315 568.472 652.645 569.744L653.357 574.39C654.438 573.917 655.399 572.701 656.295 571.916C658.853 569.679 662.148 567.761 665.625 568.209C667.099 569.122 667.826 570.118 668.28 571.813C669.22 575.327 669.242 591.819 668.057 594.758L667.203 595.034L617.797 594.754C617.513 591.978 617.795 588.93 617.837 586.13C617.89 582.681 617.706 579.027 618.382 575.637Z"/>
	<path fill="#ECBCFD" transform="scale(0.39974 0.383757)" d="M618.382 575.637C617.79 573.013 617.74 570.004 617.4 567.317C615.278 550.535 614.958 533.664 614.799 516.767C614.733 509.705 614.226 502.344 614.923 495.32C616.673 497.327 618.341 499.537 620.447 501.187C625.915 505.47 633.117 505.794 639.74 506.395C635.451 527.798 636.307 549.553 633.24 571.037C632.819 572.951 632.236 574.505 630.725 575.812C629.892 574.846 630.088 573.135 629.997 571.847C629.76 568.484 629.236 565.127 629.468 561.753L630.615 547.61C631.053 541.288 631.561 534.106 627.13 528.888C626.434 528.068 626.377 527.959 625.312 527.816C622.019 529.35 619.051 533.347 617.902 536.756C616.677 540.393 616.4 546.242 618.231 549.684C619.725 552.492 622.885 553.691 625.578 555.062L621.782 565.82C620.859 568.799 620.057 573.055 618.382 575.637Z"/>
	<path fill="#FA71FA" transform="scale(0.39974 0.383757)" d="M617.797 594.754L667.203 595.034L667.809 595.283C670.806 596.401 675.545 596.008 678.786 596.106C678.777 597.957 679.288 602.777 678.182 604.009L677.674 604.064C674.836 608.007 670.753 610.588 667.433 614.062C667.084 614.427 666.129 615.367 666.029 615.803C665.699 617.249 666.034 619.659 666.037 621.189L666.265 638.379L605.195 638.316L605.617 615.686C603.065 611.855 598.823 607.665 595.321 604.636L594.941 604.312L595.091 603.784C594.983 603.048 595.069 603.287 594.841 602.729C594.09 600.892 594.032 599.074 593.438 597.219L592.203 596.835L592.669 595.819C597.858 596.032 602.76 595.612 607.891 594.99L617.797 594.754Z"/>
	<path fill="#FFCBF2" transform="scale(0.39974 0.383757)" d="M617.797 594.754L667.203 595.034L667.809 595.283C670.806 596.401 675.545 596.008 678.786 596.106C678.777 597.957 679.288 602.777 678.182 604.009L677.674 604.064L595.091 603.784C594.983 603.048 595.069 603.287 594.841 602.729C594.09 600.892 594.032 599.074 593.438 597.219L592.203 596.835L592.669 595.819C597.858 596.032 602.76 595.612 607.891 594.99L617.797 594.754Z"/>
	<path fill="#FA71FA" transform="scale(0.39974 0.383757)" d="M170.019 594.884L170.976 598.795C169.499 600.253 169.447 601.88 169.25 603.86C168.705 604.006 168.254 604.095 167.686 604.159L168.008 605.065L159.446 615.564C159.032 616.169 158.805 616.527 158.975 617.279C160.466 623.887 159.703 631.853 159.741 638.656L96.6907 638.191L96.895 624.24C97.0144 621.565 97.5415 618.564 97.3751 615.914C97.1985 613.103 88.5482 609.367 86.4261 607.762C85.2429 606.867 84.3158 605.637 83.6621 604.312L84.6611 603.957C84.1613 603.842 83.8604 603.788 83.4648 603.435C82.6123 602.675 82.746 597.191 82.707 595.9C86.1346 595.862 90.9169 596.216 94.2239 595.389L94.7275 595.254C99.4602 594.688 104.476 594.924 109.252 594.908L133.504 594.908L149.947 594.938C152.481 594.946 156.021 594.593 158.404 595.313C160.07 596.428 167.359 595.98 169.5 595.827L170.019 594.884Z"/>
	<path fill="#F3C4FB" transform="scale(0.39974 0.383757)" d="M170.019 594.884L170.976 598.795C169.499 600.253 169.447 601.88 169.25 603.86C168.705 604.006 168.254 604.095 167.686 604.159L84.6611 603.957C84.1613 603.842 83.8604 603.788 83.4648 603.435C82.6123 602.675 82.746 597.191 82.707 595.9C86.1346 595.862 90.9169 596.216 94.2239 595.389L94.7275 595.254C99.4602 594.688 104.476 594.924 109.252 594.908L133.504 594.908L149.947 594.938C152.481 594.946 156.021 594.593 158.404 595.313C160.07 596.428 167.359 595.98 169.5 595.827L170.019 594.884Z"/>
	<path fill="#E5B3FE" transform="scale(0.39974 0.383757)" d="M148.607 387.232C150.864 386.773 154.46 386.692 156.684 387.255L157.312 387.428L158.154 386.661C158.396 390.576 158.417 394.322 159.046 398.211C159.835 403.088 162.353 410.144 166.652 412.977C167.806 413.739 170.891 412.66 171.665 413.538L168.938 413.532C168.085 414.633 169.024 421.65 169.07 423.483L169.377 464.147L169.829 554.438L169.828 580.564C169.825 585.305 169.607 590.164 170.019 594.884L169.5 595.827C167.359 595.98 160.07 596.428 158.404 595.313C158.89 589.127 158.612 582.483 158.434 576.276C158.357 573.574 158.662 569.637 157.079 567.36C156.622 566.702 156.446 566.588 155.625 566.518C151.742 566.189 147.575 571.343 145.158 573.904C143.673 570.258 142.491 567.198 139.68 564.364C138.099 565.481 136.638 566.86 135.478 568.417C134.201 570.132 132.74 573.515 130.875 574.459C129.762 573.581 129.769 572.936 129.364 571.603C129.558 562.882 130.349 553.866 129.543 545.178C128.392 532.771 125.523 520.518 125.227 508.032C124.142 507.947 123.315 507.83 122.289 507.47C120.934 506.628 118.932 506.283 117.4 505.851C117.663 504.776 118.05 503.903 118.548 502.917C119.6 502.399 120.469 501.869 121.368 501.112L121.625 500.892C125.865 499.41 127.778 497.064 130.035 493.314L131.24 494.812C132.291 496.12 133.219 497.565 134.998 497.84C137.002 498.148 140.774 497.226 142.4 496.012C144.532 494.42 145.028 491.461 145.42 489.015C145.773 488.222 146.242 487.871 146.906 487.332C147.467 487.062 147.972 486.803 148.498 486.469L147 486.283C145.962 486.187 145.661 486.053 144.844 486.752L145.406 487.219L144.75 487.408C143.847 486.816 142.788 484.958 142.022 484.066C143.112 483.029 146.928 483.35 148.44 483.323L148.687 482.816C147.619 482.99 146.662 482.991 145.582 482.941L145.575 482.894C148.712 482.084 151.827 482.42 154.873 481.003C157.708 479.683 159.699 477.323 160.762 474.415L161.73 471.388C163.234 465.56 159.127 462.813 156.569 458.483L156.336 458.078C153.535 456.407 150.191 456.759 147.037 456.736C146.962 451.474 146.208 446.098 145.661 440.862L141.193 408.844L138.694 396.455C138.025 393.402 137.161 390.49 137.225 387.338L148.607 387.232Z"/>
	<path fill="#23C1D0" transform="scale(0.39974 0.383757)" d="M152.675 527.812L153.393 528.188C155.146 532.955 155.656 541.078 153.617 545.735C152.149 549.09 149.527 551.981 145.983 553.157C143.841 553.867 141.843 553.668 139.825 552.737C138.649 551.907 137.468 551.083 136.82 549.75C136.287 548.655 136.831 547.269 137.231 546.188C140.062 538.527 145.091 531.309 152.675 527.812Z"/>
	<path fill="#5A9275" transform="scale(0.39974 0.383757)" d="M146.906 487.332C150.291 487.14 157.36 486.005 160.043 488.282C161.683 489.673 162.963 492.65 163.024 494.791C163.085 496.904 161.545 498.751 160.114 500.158C153.523 506.639 140.21 508.738 131.356 508.581C129.304 508.544 127.242 508.436 125.227 508.032C124.142 507.947 123.315 507.83 122.289 507.47C120.934 506.628 118.932 506.283 117.4 505.851C117.663 504.776 118.05 503.903 118.548 502.917C119.6 502.399 120.469 501.869 121.368 501.112L121.625 500.892C125.865 499.41 127.778 497.064 130.035 493.314L131.24 494.812C132.291 496.12 133.219 497.565 134.998 497.84C137.002 498.148 140.774 497.226 142.4 496.012C144.532 494.42 145.028 491.461 145.42 489.015C145.773 488.222 146.242 487.871 146.906 487.332Z"/>
	<path fill="#5A9275" transform="scale(0.39974 0.383757)" d="M148.607 387.232C149.943 388.755 150.07 392.557 150.519 394.703C153.487 408.903 155.169 422.731 156.048 437.203C156.441 443.671 156.947 450.475 156.586 456.949C156.549 457.61 156.566 457.403 156.336 458.078C153.535 456.407 150.191 456.759 147.037 456.736C146.962 451.474 146.208 446.098 145.661 440.862L141.193 408.844L138.694 396.455C138.025 393.402 137.161 390.49 137.225 387.338L148.607 387.232Z"/>
	<defs>
		<linearGradient id="gradient_1" gradientUnits="userSpaceOnUse" x1="585.552" y1="483.491" x2="675.409" y2="507.10901">
			<stop offset="0" stop-color="#4F8565"/>
			<stop offset="1" stop-color="#4DA796"/>
		</linearGradient>
	</defs>
	<path fill="url(#gradient_1)" transform="scale(0.39974 0.383757)" d="M627.652 388.967L628.432 389.625C628.164 392.513 627.261 395.412 626.598 398.235L623.479 412.443C620.323 427.818 618.17 443.851 617.838 459.557C624.912 456.615 632.102 454.359 639.622 457.239C641.522 457.967 643.136 459.539 643.888 461.438C644.537 463.076 644.713 464.68 644.945 466.398C645.054 467.203 644.976 466.899 645.436 467.643L645.117 468.765L645.347 469.117C646.022 470.169 646.406 470.959 646.688 472.175L647.906 472.666L648.188 473.548C649.367 473.633 650.544 473.771 651.723 473.635L653.041 473.648C653.122 474.335 653.039 474.029 653.252 474.576C653.893 474.706 655.048 474.753 655.485 475.217L654.748 475.203L653.438 474.965L653.066 475.312C653.772 475.957 654.325 476.406 655.184 476.823C659.728 479.025 663.533 482.568 665.337 487.351L666.777 489.058L666.917 489.062C668.439 487.474 671.177 487.384 673.304 487.271C675.82 490.52 679.321 493.048 678.752 497.593C678.511 499.518 677.257 500.671 675.75 501.748C669.928 505.907 660.457 506.496 653.554 506.872C649.721 507.082 645.513 507.27 641.733 506.579L639.74 506.395C633.117 505.794 625.915 505.47 620.447 501.187C618.341 499.537 616.673 497.327 614.923 495.32C614.226 502.344 614.733 509.705 614.799 516.767C614.958 533.664 615.278 550.535 617.4 567.317C617.74 570.004 617.79 573.013 618.382 575.637C617.706 579.027 617.89 582.681 617.837 586.13C617.795 588.93 617.513 591.978 617.797 594.754L607.891 594.99C602.76 595.612 597.858 596.032 592.669 595.819C591.896 591.078 592.504 585.284 592.501 580.447L592.436 546.915L591.769 500.862L591.086 414.035L591.771 413.991C597.516 413.688 602.012 411.075 606.928 408.345C607.153 406.201 607.849 403.937 608.27 401.805C609.094 397.633 609.653 393.296 609.367 389.038L627.652 388.967Z"/>
	<path fill="#ECBCFD" transform="scale(0.39974 0.383757)" d="M647.263 493.439C648.865 493.788 649.965 493.944 651.562 493.513L652.879 494.34C650.497 496.19 648.029 497.73 644.864 497.233C643.946 497.089 643.12 496.63 642.314 496.189L645.938 495.73C646.788 494.831 646.954 494.628 647.263 493.439Z"/>
	<path fill="#ECBCFD" transform="scale(0.39974 0.383757)" d="M626.581 478.705C626.705 477.609 626.684 477.588 627.46 476.812C630.601 477.35 634.658 477.279 637.827 476.95C640.572 476.665 642.657 476.022 645.47 476.714C646.048 476.856 646.267 476.658 646.814 476.456L647.022 476.53L647.011 477.05C644.759 479.847 642.421 482.575 640.519 485.625C640.03 486.409 639.526 487.114 639.152 487.967C638.098 488.095 637.28 487.777 636.263 488.25L634.123 489.188L633.257 489.527C631.433 490.157 628.299 490.006 626.581 489.054C625.273 488.329 623.986 486.531 623.713 485.062C623.349 483.102 625.518 480.337 626.581 478.705Z"/>
	<path fill="#F3C4FB" transform="scale(0.39974 0.383757)" d="M641.997 472.621C642.966 472.653 643.604 472.864 644.434 472.312L642.562 470.816C641.894 470.875 641.66 470.857 641.038 470.546C640.4 470.226 640.621 470.251 639.938 470.066C639.432 469.93 638.954 469.87 638.447 469.701L633.938 468.191L630.748 467.259C630.045 467.016 629.395 466.883 628.688 466.691C627.686 466.42 626.8 465.978 626.314 465.064C628.618 464.036 632.368 465.643 634.681 466.327C637.414 467.134 640.046 467.736 642.75 468.73L643.902 467.921L645.117 468.765L645.347 469.117C646.022 470.169 646.406 470.959 646.688 472.175L647.906 472.666L648.188 473.548C649.367 473.633 650.544 473.771 651.723 473.635L653.041 473.648C653.122 474.335 653.039 474.029 653.252 474.576C653.893 474.706 655.048 474.753 655.485 475.217L654.748 475.203L653.438 474.965L653.066 475.312C653.772 475.957 654.325 476.406 655.184 476.823C659.728 479.025 663.533 482.568 665.337 487.351L666.777 489.058L666.917 489.062C667.454 490.639 668.341 492.645 667.418 494.209C666.475 495.807 664.392 496.95 662.628 497.293C660.812 497.647 658.894 497.308 657.259 496.47C655.906 495.732 654.939 495.106 653.964 493.901L652.879 494.34L651.562 493.513C649.965 493.944 648.865 493.788 647.263 493.439C646.954 494.628 646.788 494.831 645.938 495.73L642.314 496.189C640.214 494.268 639.154 492.839 638.781 489.964L639.152 487.967C639.526 487.114 640.03 486.409 640.519 485.625C642.421 482.575 644.759 479.847 647.011 477.05L647.022 476.53L646.814 476.456L647.03 475.817L646.425 474.967C644.804 474.707 643.141 474.563 641.652 473.839L642.934 473.438L641.997 472.621Z"/>
	<path fill="#ECBCFD" transform="scale(0.39974 0.383757)" d="M665.337 487.351L666.777 489.058L666.917 489.062C667.454 490.639 668.341 492.645 667.418 494.209C666.475 495.807 664.392 496.95 662.628 497.293C660.812 497.647 658.894 497.308 657.259 496.47C658.923 495.168 660.879 495.493 662.87 495.553L663.444 495.573C664.162 495.582 664.859 495.412 665.374 494.897L665.627 494.627L666.188 494.625L666.562 494.066L666.191 493.5C666.227 492.492 666.427 491.278 665.941 490.375C665.497 489.55 665.484 488.794 665.387 487.868L665.337 487.351Z"/>
	<path fill="#E5B3FE" transform="scale(0.39974 0.383757)" d="M646.425 474.967L650.985 474.793L650.976 475.493C650.949 479.299 652.149 482.754 652.959 486.435C653.296 488.769 654.307 491.611 653.964 493.901L652.879 494.34L651.562 493.513C649.965 493.944 648.865 493.788 647.263 493.439C646.954 494.628 646.788 494.831 645.938 495.73L642.314 496.189C640.214 494.268 639.154 492.839 638.781 489.964L639.152 487.967C639.526 487.114 640.03 486.409 640.519 485.625C642.421 482.575 644.759 479.847 647.011 477.05L647.022 476.53L646.814 476.456L647.03 475.817L646.425 474.967Z"/>
	<path fill="#F3C4FB" transform="scale(0.39974 0.383757)" d="M647.022 476.53L648.19 476.191C649.573 477.576 650.206 480.275 650.553 482.25C650.774 483.51 650.648 484.839 651.372 485.939L651.603 487.681C651.992 488.927 652.157 489.527 651.75 490.851C649.044 490.482 650.047 486.798 649.279 484.804C648.797 483.553 647.905 482.356 647.066 481.312L645.641 482.637C646.205 480.621 647.565 479.131 647.011 477.05L647.022 476.53Z"/>
	<path fill="#FFCBF2" transform="scale(0.39974 0.383757)" d="M647.011 477.05C647.565 479.131 646.205 480.621 645.641 482.637C645.531 482.973 644.7 485.75 644.574 485.822C644.529 488.856 644.196 490.479 646.5 492.79L647.263 493.439C646.954 494.628 646.788 494.831 645.938 495.73L642.314 496.189C640.214 494.268 639.154 492.839 638.781 489.964L639.152 487.967C639.526 487.114 640.03 486.409 640.519 485.625C642.421 482.575 644.759 479.847 647.011 477.05Z"/>
	<path fill="#FFCBF2" transform="scale(0.39974 0.383757)" d="M617.838 459.557C624.912 456.615 632.102 454.359 639.622 457.239C641.522 457.967 643.136 459.539 643.888 461.438C644.537 463.076 644.713 464.68 644.945 466.398C645.054 467.203 644.976 466.899 645.436 467.643L645.117 468.765L643.902 467.921L642.75 468.73C640.046 467.736 637.414 467.134 634.681 466.327C632.368 465.643 628.618 464.036 626.314 465.064C626.8 465.978 627.686 466.42 628.688 466.691C629.395 466.883 630.045 467.016 630.748 467.259L633.938 468.191L638.447 469.701C638.954 469.87 639.432 469.93 639.938 470.066C640.621 470.251 640.4 470.226 641.038 470.546C641.66 470.857 641.894 470.875 642.562 470.816L644.434 472.312C643.604 472.864 642.966 472.653 641.997 472.621L642.934 473.438L641.652 473.839C643.141 474.563 644.804 474.707 646.425 474.967L647.03 475.817L646.814 476.456C646.267 476.658 646.048 476.856 645.47 476.714C642.657 476.022 640.572 476.665 637.827 476.95C634.658 477.279 630.601 477.35 627.46 476.812C626.684 477.588 626.705 477.609 626.581 478.705C623.656 478.097 621.392 477.27 618.927 475.535C616.846 473.647 615.778 471.499 614.733 468.956C614.534 467.485 614.388 465.758 614.525 464.274C614.726 462.1 616.293 460.881 617.838 459.557Z"/>
	<path fill="#ECBCFD" transform="scale(0.39974 0.383757)" d="M641.997 472.621L628.515 468.31C624.93 467.447 621.795 465.836 618.682 463.889C620.105 462.734 621.663 461.62 623.371 460.935C626.296 459.76 632.28 459.696 635.196 461.003L635.625 461.207C639.117 462.826 641.592 464.861 643.902 467.921L642.75 468.73C640.046 467.736 637.414 467.134 634.681 466.327C632.368 465.643 628.618 464.036 626.314 465.064C626.8 465.978 627.686 466.42 628.688 466.691C629.395 466.883 630.045 467.016 630.748 467.259L633.938 468.191L638.447 469.701C638.954 469.87 639.432 469.93 639.938 470.066C640.621 470.251 640.4 470.226 641.038 470.546C641.66 470.857 641.894 470.875 642.562 470.816L644.434 472.312C643.604 472.864 642.966 472.653 641.997 472.621Z"/>
	<path fill="#E2AFFF" transform="scale(0.39974 0.383757)" d="M614.733 468.956L617.25 468.938C617.825 468.254 618.308 467.64 618.75 466.857L619.5 466.849L619.791 467.174C620.643 468.08 621.521 468.733 622.581 469.36L641.652 473.839C643.141 474.563 644.804 474.707 646.425 474.967L647.03 475.817L646.814 476.456C646.267 476.658 646.048 476.856 645.47 476.714C642.657 476.022 640.572 476.665 637.827 476.95C634.658 477.279 630.601 477.35 627.46 476.812C626.684 477.588 626.705 477.609 626.581 478.705C623.656 478.097 621.392 477.27 618.927 475.535C616.846 473.647 615.778 471.499 614.733 468.956Z"/>
	<path fill="#F3C4FB" transform="scale(0.39974 0.383757)" d="M614.733 468.956L617.25 468.938C617.825 468.254 618.308 467.64 618.75 466.857L619.5 466.849L619.791 467.174C620.643 468.08 621.521 468.733 622.581 469.36C621.502 469.041 620.434 468.666 619.309 468.562C618.423 469.95 619.373 473.611 618.927 475.535C616.846 473.647 615.778 471.499 614.733 468.956Z"/>
	<path fill="#ECBCFD" transform="scale(0.39974 0.383757)" d="M591.086 414.035L591.771 413.991C597.516 413.688 602.012 411.075 606.928 408.345C603.453 433.713 604.274 459.857 604.697 485.392L604.963 535.449L605.225 575.925L605.278 587.856C605.288 590.039 605.114 592.413 605.438 594.567C606.281 594.856 607.01 594.918 607.891 594.99C602.76 595.612 597.858 596.032 592.669 595.819C591.896 591.078 592.504 585.284 592.501 580.447L592.436 546.915L591.769 500.862L591.086 414.035Z"/>
	<defs>
		<linearGradient id="gradient_2" gradientUnits="userSpaceOnUse" x1="384.45401" y1="204.797" x2="384.29599" y2="313.828">
			<stop offset="0" stop-color="#FFDDFD"/>
			<stop offset="1" stop-color="#FCFFFB"/>
		</linearGradient>
	</defs>
	<path fill="url(#gradient_2)" transform="scale(0.39974 0.383757)" d="M156.332 314.188L155.957 204.36L612.773 204.276L612.827 314.568L591.336 314.564C590.887 312.697 591.324 309.995 591.342 308.006L591.294 294.75L591.358 222.743L175.475 222.601L175.479 268.129C175.483 275.707 174.936 283.8 175.721 291.302C175.82 292.901 175.786 294.656 176.178 296.208C177.737 301.671 176.17 308.516 176.825 314.248L162.391 314.316C160.59 314.328 158.02 314.711 156.332 314.188Z"/>
	<path fill="#FFCBF2" transform="scale(0.39974 0.383757)" d="M175.721 291.302C174.936 283.8 175.483 275.707 175.479 268.129L175.475 222.601L591.358 222.743L591.294 294.75L591.342 308.006C591.324 309.995 590.887 312.697 591.336 314.564L551.057 314.932L156.157 314.685L156.332 314.188C158.02 314.711 160.59 314.328 162.391 314.316L176.825 314.248C176.17 308.516 177.737 301.671 176.178 296.208C175.786 294.656 175.82 292.901 175.721 291.302Z"/>
	<path fill="#F3C4FB" transform="scale(0.39974 0.383757)" d="M175.721 291.302C176.471 291.076 176.597 290.926 177.37 291.138C179.253 291.654 181.78 291.356 183.743 291.365L197.945 291.419L244.35 291.76L343.312 291.534L541.906 291.734L576.439 291.83L586.355 291.733C587.678 291.717 589.597 291.419 590.826 291.938C590.884 293.109 591.14 294.488 590.627 295.546C587.334 296.185 583.258 295.771 579.88 295.783L556.575 295.842L472.152 296.01L198.313 296.001L176.178 296.208C175.786 294.656 175.82 292.901 175.721 291.302Z"/>
	<path fill="#FFFEFE" transform="scale(0.39974 0.383757)" d="M156.157 314.685L551.057 314.932L599.327 314.893C605.981 314.894 613.345 314.333 619.9 315.239L619.683 330.462L610.678 330.425C609.038 330.423 607.242 330.222 605.685 330.764C606.287 332.926 606.663 335.014 606.948 337.24C603.368 337.265 598.915 336.814 595.438 337.441L592.684 337.426C597.182 349.282 601.679 361.382 605.077 373.605C605.704 375.86 608.205 388.149 609.367 389.038C609.653 393.296 609.094 397.633 608.27 401.805C607.849 403.937 607.153 406.201 606.928 408.345C602.012 411.075 597.516 413.688 591.771 413.991L591.086 414.035L591.769 500.862L592.436 546.915L592.501 580.447C592.504 585.284 591.896 591.078 592.669 595.819L592.203 596.835L592.109 597.475L591.276 616.96L549.18 616.782L472.692 616.756L443.924 616.575C440.37 616.535 436.048 616.983 432.609 616.284L432.529 626.582L394.642 626.563L384.231 626.559C382.456 626.559 380.504 626.388 378.753 626.685L340.189 626.663L336.188 626.572C335.995 626.402 335.694 626.305 335.61 626.062C335.428 625.535 335.621 623.979 335.621 623.359C335.623 621.077 335.644 618.849 335.269 616.588L335.182 616.115C333.956 616.981 330.921 616.729 329.356 616.761L264.716 616.801L174.857 616.799C174.467 610.788 172.881 604.489 170.976 598.795L170.019 594.884C169.607 590.164 169.825 585.305 169.828 580.564L169.829 554.438L169.377 464.147L169.07 423.483C169.024 421.65 168.085 414.633 168.938 413.532L171.665 413.538C170.891 412.66 167.806 413.739 166.652 412.977C162.353 410.144 159.835 403.088 159.046 398.211C158.417 394.322 158.396 390.576 158.154 386.661C158.211 382.331 159.836 377.403 161.055 373.272L169.907 347.317C171.09 344.19 172.653 341.094 173.523 337.875L172.949 337.388L160.395 337.394C159.791 337.288 159.253 337.14 158.675 336.938L160.808 330.695L148.351 330.433L148.018 314.99L155.737 314.744L156.157 314.685Z"/>
	<path fill="#FA71FA" transform="scale(0.39974 0.383757)" d="M335.182 616.115C338.045 615.099 430.702 615.506 432.609 616.284L432.529 626.582L394.642 626.563L384.231 626.559C382.456 626.559 380.504 626.388 378.753 626.685L340.189 626.663L336.188 626.572C335.995 626.402 335.694 626.305 335.61 626.062C335.428 625.535 335.621 623.979 335.621 623.359C335.623 621.077 335.644 618.849 335.269 616.588L335.182 616.115Z"/>
	<path fill="#E2AFFF" transform="scale(0.39974 0.383757)" d="M221.234 583.544L324.059 584.226L324.05 594.46L221.223 594.726L221.234 583.544Z"/>
	<path fill="#DEAAFF" transform="scale(0.39974 0.383757)" d="M542.935 583.688L544.125 583.779C545.302 585.433 544.586 591.73 544.584 594.022L438.938 594.394C438.008 594.348 437.915 594.423 437.234 593.812L437.095 584.114L542.935 583.688Z"/>
	<path fill="#FA71FA" transform="scale(0.39974 0.383757)" d="M336.867 598.447L430.364 598.435C430.496 601.597 431.097 604.768 431.69 607.875C431.93 609.135 432.479 610.546 432.219 611.813L430.688 612.003L335.041 612.267C335.037 611.616 335.002 611.912 335.16 611.23C336.149 606.978 336.71 602.812 336.867 598.447Z"/>
	<path fill="#FA71FA" transform="scale(0.39974 0.383757)" d="M310.679 337.562L340.979 337.674C345.067 337.664 390.654 336.795 391.414 337.366C390.844 338.271 391.076 339.641 391.078 340.677L391.097 348.94C391.127 361.41 391.073 373.813 390.041 386.25C389.513 392.611 389.117 400.546 385.938 406.256C384.43 408.966 382.144 410.991 379.106 411.772C375.604 412.673 371.327 412.787 368.203 410.76C364.856 408.59 363.046 404.554 362.274 400.759L362.149 400.125C360.951 394.503 361.304 388.408 361.496 382.688L363.756 348.082C363.934 345.107 364.921 340.511 364.277 337.716L331.061 337.965C324.467 337.959 317.187 338.501 310.679 337.562Z"/>
	<path fill="#FA71FA" transform="scale(0.39974 0.383757)" d="M409.619 337.367L439.435 337.48C439.456 343.084 440.228 348.679 440.572 354.27L441.425 383.662C441.416 390.351 441.711 399.202 438.59 405.276C437.041 408.29 434.512 410.99 431.182 411.957C427.777 412.946 423.173 413.011 420.03 411.199C416.617 409.232 414.916 405.207 413.913 401.577C412.958 398.121 412.728 394.494 412.398 390.938L411.257 371.438L410.066 348.253C409.947 345.147 410.521 340.775 409.751 337.835L409.619 337.367Z"/>
	<path fill="#FA71FA" transform="scale(0.39974 0.383757)" d="M229.171 337.485L259.228 337.487L259.041 338.812C258.325 342.552 257.147 346.183 256.186 349.861L250.56 372.254L246.972 388.863C246.056 393.303 245.266 397.779 243.584 402.011C242.206 405.48 240.375 408.679 237.173 410.771C233.757 413.004 229.902 413.299 225.991 412.417C223.663 411.892 221.494 410.323 220.256 408.295C212.28 395.236 220.361 366.395 224.469 352.418C225.9 347.551 227.87 342.771 229.082 337.856L229.171 337.485Z"/>
	<path fill="#FA71FA" transform="scale(0.39974 0.383757)" d="M278.93 337.475L309.437 337.509L299.56 394.873C298.608 400.042 297.202 407.98 292.417 411.037C289.172 413.11 284.797 413.409 281.131 412.529C278.122 411.806 275.799 409.763 274.247 407.134C271.447 402.389 271.187 395.405 271.141 390.05C270.984 372.074 274.647 354.837 278.93 337.475Z"/>
	<path fill="#FA71FA" transform="scale(0.39974 0.383757)" d="M172.949 337.388C176.854 336.939 180.957 337.206 184.895 337.212L205.74 337.418L193.618 374.961C190.949 384.664 189.676 395.475 185.325 404.58C183.698 407.985 181.516 410.625 178.109 412.328C176.152 413.306 173.836 413.616 171.665 413.538C170.891 412.66 167.806 413.739 166.652 412.977C162.353 410.144 159.835 403.088 159.046 398.211C158.417 394.322 158.396 390.576 158.154 386.661C158.211 382.331 159.836 377.403 161.055 373.272L169.907 347.317C171.09 344.19 172.653 341.094 173.523 337.875L172.949 337.388Z"/>
	<path fill="#FA71FA" transform="scale(0.39974 0.383757)" d="M343.451 517.637C349.873 518.04 356.382 517.847 362.819 517.858L396.394 517.847L411.75 517.808C413.514 517.795 416.211 518.064 417.842 517.622L418.142 592.391L343.741 592.656L343.451 517.637Z"/>
	<path fill="#FA71FA" transform="scale(0.39974 0.383757)" d="M343.441 483.206L343.381 433.511L417.943 433.705L417.869 512.663L417.842 517.622C416.211 518.064 413.514 517.795 411.75 517.808L396.394 517.847L362.819 517.858C356.382 517.847 349.873 518.04 343.451 517.637C342.867 513.75 343.255 509.211 343.243 505.249C343.222 497.946 342.931 490.491 343.441 483.206Z"/>
	<path fill="#E5B3FE" transform="scale(0.39974 0.383757)" d="M343.451 517.637C342.867 513.75 343.255 509.211 343.243 505.249C343.222 497.946 342.931 490.491 343.441 483.206L343.568 512.727L417.869 512.663L417.842 517.622C416.211 518.064 413.514 517.795 411.75 517.808L396.394 517.847L362.819 517.858C356.382 517.847 349.873 518.04 343.451 517.637Z"/>
	<path fill="#FA71FA" transform="scale(0.39974 0.383757)" d="M443.931 337.556L592.684 337.426C597.182 349.282 601.679 361.382 605.077 373.605C605.704 375.86 608.205 388.149 609.367 389.038C609.653 393.296 609.094 397.633 608.27 401.805C607.849 403.937 607.153 406.201 606.928 408.345C602.012 411.075 597.516 413.688 591.771 413.991L591.086 414.035L589.688 413.625C585.866 412.176 582.742 409.693 580.617 406.18C575.73 398.099 574.111 387.11 572.097 377.952L566.496 355.383C564.879 349.359 563.357 343.358 560.765 337.665L540.146 337.793L541.611 343.35C544.334 354.823 546.462 366.392 547.606 378.135C548.274 384.982 548.818 392.187 547.847 399.023C547.398 402.185 546.829 405.767 544.981 408.449C543.826 410.126 541.807 411.436 539.816 411.833C536.06 412.583 530.511 412.765 527.315 410.376C524.468 408.247 522.657 405.214 521.524 401.893C518.466 392.929 518.052 382.407 516.664 373.059L510.564 337.844L491.04 337.855C494.135 351.03 501.055 395.726 493.83 407.366C492.128 410.107 489.91 411.838 486.713 412.478C482.849 413.251 477.945 412.553 474.718 410.239C471.815 408.157 469.999 403.53 469.068 400.194C466.692 391.678 466.379 381.69 465.524 372.854L461.109 337.74L444.441 337.613L443.931 337.556Z"/>
	<path fill="#FA71FA" transform="scale(0.39974 0.383757)" d="M156.157 314.685L551.057 314.932L599.327 314.893C605.981 314.894 613.345 314.333 619.9 315.239L619.683 330.462L610.678 330.425C609.038 330.423 607.242 330.222 605.685 330.764C606.287 332.926 606.663 335.014 606.948 337.24C603.368 337.265 598.915 336.814 595.438 337.441L592.684 337.426L443.931 337.556L439.435 337.48L409.619 337.367L391.414 337.366C390.654 336.795 345.067 337.664 340.979 337.674L310.679 337.562L309.437 337.509L278.93 337.475L259.228 337.487L229.171 337.485L205.74 337.418L184.895 337.212C180.957 337.206 176.854 336.939 172.949 337.388L160.395 337.394C159.791 337.288 159.253 337.14 158.675 336.938L160.808 330.695L148.351 330.433L148.018 314.99L155.737 314.744L156.157 314.685Z"/>
	<path fill="#AD20DC" transform="scale(0.39974 0.383757)" d="M160.808 330.695L605.685 330.764C606.287 332.926 606.663 335.014 606.948 337.24C603.368 337.265 598.915 336.814 595.438 337.441L592.684 337.426L443.931 337.556L439.435 337.48L409.619 337.367L391.414 337.366C390.654 336.795 345.067 337.664 340.979 337.674L310.679 337.562L309.437 337.509L278.93 337.475L259.228 337.487L229.171 337.485L205.74 337.418L184.895 337.212C180.957 337.206 176.854 336.939 172.949 337.388L160.395 337.394C159.791 337.288 159.253 337.14 158.675 336.938L160.808 330.695Z"/>
	<path fill="#C934DF" transform="scale(0.39974 0.383757)" d="M322.92 513.44C322.582 515.872 322.902 518.522 322.986 520.976L323.364 533.921L323.983 576.213L221.362 576.079L221.623 434.01L324.057 433.966L323.98 474.461C323.959 481.283 324.474 488.668 323.686 495.414L323.631 495.844C323.454 497.375 323.421 498.618 323.722 500.134C324.117 503.658 324.359 508.177 323.675 511.659L323.196 513.295L322.92 513.44Z"/>
	<path fill="#AD20DC" transform="scale(0.39974 0.383757)" d="M262.857 566.214C263.549 566.161 264.081 566.277 264.753 566.438L264.386 567.109C261.953 568.425 257.656 570.613 254.906 570.901C253.905 571.006 252.871 570.748 252.094 570.094L252.938 570C251.985 569.442 250.808 570.215 249.66 570.222C248.519 570.688 247.099 571.47 245.867 571.399C247.121 570.435 249.431 570.008 250.979 569.546L262.857 566.214Z"/>
	<path fill="#FFCBF2" transform="scale(0.39974 0.383757)" d="M312.018 550.619L314.062 550.964C314.996 551.647 315.464 552.346 315.621 553.5C315.709 554.149 315.891 555.681 315.492 556.2C314.218 557.856 312.334 558.624 310.312 558.921C309.355 558.848 308.554 558.745 307.738 558.188C306.768 557.525 306.287 556.327 306.193 555.187C306.112 554.209 306.371 553.337 306.993 552.584C308.247 551.063 310.198 550.861 312.018 550.619Z"/>
	<path fill="#FFCBF2" transform="scale(0.39974 0.383757)" d="M280.671 512.782C278.655 513.208 275.91 513.615 273.984 512.765C272.623 512.163 272.195 510.033 271.768 508.73C270.019 508.767 268.346 508.859 266.625 508.477C265.691 507.719 265.534 507.356 265.222 506.25C265.333 505.002 265.785 504.392 266.515 503.384L266.793 503.009C266.791 501.849 266.881 500.831 267.07 499.688C267.665 498.937 268.268 498.23 269.105 497.738C270.213 497.087 271.622 497.026 272.848 497.363L275.062 497.898L276.097 496.96C278.117 495.271 280.376 494.127 282.866 495.511C283.647 495.945 284.487 496.781 285.269 497.103C285.783 497.315 287.05 497.247 287.644 497.306C289.637 497.506 290.448 497.713 291.76 499.312C291.471 501.207 290.236 502.021 288.952 503.39C289.916 504.904 291.753 507.036 291.408 508.875C291.226 509.844 289.894 511.299 289.073 511.771C288.331 512.198 287.248 512.394 286.404 512.496L280.671 512.782Z"/>
	<path fill="#FEECBB" transform="scale(0.39974 0.383757)" d="M281.66 510.374L282.562 509.559C283.104 509.617 283.52 509.504 283.892 509.942C284.347 510.478 284.545 511.049 284.812 511.691L285.309 511.853C286.038 512.114 285.767 511.985 286.404 512.496L280.671 512.782L281.66 510.374Z"/>
	<path fill="#FFCBF2" transform="scale(0.39974 0.383757)" d="M322.92 513.44L321.89 514.125C321.316 514.635 321.079 515.1 320.378 515.482C317.339 517.139 311.748 516.776 308.49 515.77C307.898 515.022 307.687 514.652 307.566 513.694C307.478 513.003 307.441 512.639 307.002 512.062L306.644 512.038C304.834 511.894 303.41 511.613 302.2 510.188C301.845 507.847 303.125 505.534 304.061 503.45L302.405 501.932C301.576 501.071 301.038 500.614 301.206 499.312C301.476 497.232 302.632 495.488 304.312 494.326C306.813 494.013 308.682 494.721 311.008 495.53C311.635 494.613 312.286 493.589 313.214 492.949C314.807 491.851 316.779 492.092 318.562 492.45C320.061 493.795 321.321 494.844 323.189 495.659L323.631 495.844C323.454 497.375 323.421 498.618 323.722 500.134C324.117 503.658 324.359 508.177 323.675 511.659L323.196 513.295L322.92 513.44Z"/>
	<path fill="#F3C4FB" transform="scale(0.39974 0.383757)" d="M318.852 506.716L318.948 506.896L318.498 507.789C316.63 508.364 314.467 507.591 312.597 507.188C312.374 506.096 312.18 505.555 311.442 504.722L308.904 501.836C311.009 501.828 313.294 502.019 315.375 501.793C316.42 501.679 317.309 501.282 318.372 501.318L317.812 502.37L316.215 502.59C315.874 503.327 315.821 503.037 316.03 503.586C316.528 504.892 317.007 505.34 318.101 506.152L318.565 506.508L318.852 506.716Z"/>
	<path fill="#FFCBF2" transform="scale(0.39974 0.383757)" d="M279.772 544.688C281.786 545.021 282.82 546.676 284.418 547.89L289.193 545.911C291.281 547.028 292.887 548.061 294.239 550.046C294.64 550.636 295.232 551.685 295.875 552.056C296.933 552.667 297.238 552.034 298.312 553.159C298.479 554.312 298.494 555.193 298.24 556.338C297.543 559.471 295.705 563.437 292.821 565.081C290.233 566.555 288.145 565.509 285.562 564.847L285.144 565.749C284.547 566.508 283.942 567.305 283.202 567.931C281.544 569.335 279.313 569.806 277.177 569.564C275.06 569.324 273.76 568.441 272.451 566.812C271.885 565.26 272.023 564.11 272.271 562.528C272.405 561.68 272.451 562.129 272.062 561.24L271.031 561.149C269.332 560.979 268.586 560.845 267.474 559.498C267.328 558.531 267.255 557.761 267.453 556.793C268.058 553.826 270.821 549.819 273.938 549.106C275.071 548.847 275.825 549.566 276.938 548.846L277.321 547.624C277.917 545.92 278.218 545.463 279.772 544.688Z"/>
	<path fill="#DEAAFF" transform="scale(0.39974 0.383757)" d="M283.553 555.562L284.438 555.833C284.978 556.792 285.56 557.723 285.737 558.827C285.885 559.748 285.688 559.697 285.188 560.414C284.086 559.977 283.512 559.887 282.774 558.938C282.809 557.412 282.602 556.794 283.553 555.562Z"/>
	<path fill="#FFCBF2" transform="scale(0.39974 0.383757)" d="M289.974 537.9L289.426 537.941C288.095 538.031 287.126 538.127 285.883 537.612C284.956 535.673 284.586 533.007 285.274 530.926C285.784 529.379 287.054 528.145 288.507 527.478C289.645 526.956 290.861 526.668 292.079 526.399C292.806 525.55 293.14 524.854 293.563 523.838C294.763 523.07 296.767 522.158 298.229 522.516C299.674 522.87 301.303 525.384 302.603 524.959C304.496 524.339 306.848 523.618 308.75 524.499C309.156 525.374 309.468 526.113 309.676 527.062C310.599 527.619 311.616 527.428 312.649 527.376C313.945 528.587 315.109 529.475 315.575 531.258L315.37 531.723C314.834 532.967 314.503 533.768 314.604 535.125L315.617 537C315.209 537.653 315.389 537.606 314.604 537.85C313.092 538.322 311.822 540.464 310.192 541.312L310.66 542.883C310.878 543.689 310.731 544.105 310.498 544.875C309.397 546.306 308.022 546.538 306.292 546.789C303.56 547.184 301.671 547.169 299.062 546.208L298.591 545.654L296.812 545.143C296.194 545.308 295.608 545.437 294.969 545.499C293.23 545.669 291.728 545.608 290.349 544.434C289.978 542.553 290.442 540.398 290.643 538.5L289.974 537.9Z"/>
	<path fill="#E5B3FE" transform="scale(0.39974 0.383757)" d="M300.061 542.761C299.496 542.97 299.132 543.018 298.533 542.918C295.334 542.383 297.187 541.077 295.773 539.062L296.314 538.231L297.811 538.062C299.092 538.555 300.515 538.939 301.437 540C301.416 541.382 301.529 541.538 300.451 542.484L300.061 542.761Z"/>
	<path fill="#DEAAFF" transform="scale(0.39974 0.383757)" d="M292.977 536.932C294.358 535.77 295.727 534.672 296.879 533.272C299.604 533.663 301.329 534.127 303.938 532.946L304.423 533.062L304.312 534.766C303.694 535.146 303.725 535.225 302.957 535.213C300.441 535.176 298.781 535.772 296.478 536.688C295.016 537.066 294.453 537.356 292.977 536.932Z"/>
	<path fill="#FFCBF2" transform="scale(0.39974 0.383757)" d="M245.226 522.696L245.052 523.007C244.179 524.189 242.336 524.767 240.938 524.906C239.442 525.055 237.553 525.152 236.336 524.145C234.366 522.516 234.508 520.071 234.372 517.742C233.066 517.496 231.069 517.331 229.92 516.679C229.061 516.191 228.337 515.434 228.119 514.435C227.835 513.131 228.34 512.113 229.125 511.158C229.837 510.918 230.593 510.727 231.184 510.244C231.355 510.104 231.235 504.274 231.297 503.438C231.569 503.167 231.749 502.949 232.125 502.785C234.163 501.896 236.925 502.442 238.865 503.312L239.438 503.576C240.231 502.396 240.449 500.941 241.458 499.913C242.305 499.051 243.546 498.463 244.768 498.516C246.435 498.588 247.899 500.212 248.984 501.368L249.375 501.788C249.991 501.526 249.774 501.66 250.238 501.33C252.039 500.047 253.045 500.076 255.188 500.301C257.178 502.04 256.549 504.144 256.919 506.582C257.777 506.944 258.329 507.324 259.029 507.938C259.166 508.832 259.27 509.72 259.172 510.625C259.028 511.949 259.067 513.288 258 514.127L255.617 513.789L255.046 514.395C256.001 515.497 256.649 515.938 256.568 517.5C256.481 519.172 255.396 521.59 254.062 522.615C252.832 523.56 251.392 523.962 249.867 523.7C248.522 523.468 247.196 522.763 246.188 521.848L245.226 522.696Z"/>
	<path fill="#ECBCFD" transform="scale(0.39974 0.383757)" d="M245.189 511.541C246.455 511.527 246.838 511.579 247.968 510.938C248.408 509.265 248.621 506.966 249.938 505.812C251.103 507.564 251.348 508.481 251.321 510.558C251.318 510.809 251.225 512.117 251.281 512.242C251.319 512.328 255.152 513.628 255.617 513.789L255.046 514.395C253.421 513.698 251.729 513.342 250.109 512.569L249.75 512.394L245.082 512.639C244.917 514.772 245.525 517.937 244.966 519.818C244.305 518.294 243.687 516.47 242.567 515.225C241.495 514.033 240.447 513.284 240.071 511.688C240.522 510.644 240.707 510.117 241.688 509.461C243.095 509.934 244.026 510.63 245.189 511.541Z"/>
	<path fill="#FFCBF2" transform="scale(0.39974 0.383757)" d="M247.186 560.122L247.104 560.258C246.879 560.935 246.776 561.574 246.363 562.184C245.679 563.191 244.496 563.746 243.345 564.025C242.172 564.309 239.13 564.731 237.978 564.439C236.067 563.955 232.712 561.199 230.96 560.07L231.257 553.751C229.932 553.182 228.67 552.637 227.64 551.595C226.693 550.637 226.339 549.681 226.416 548.335C226.548 545.997 228.168 544.323 230.474 544.059C231.489 543.942 232.762 544.083 233.546 543.375L233.654 541.312C233.813 540.204 233.972 539.715 234.844 539.021C236.56 538.865 237.801 539.03 239.436 539.478L239.96 539.627L240.576 538.572C241.057 537.758 241.829 536.1 242.814 535.924C244.303 535.659 245.543 536.244 246.75 537.061C248.313 538.119 249.348 537.666 250.92 538.282C252.012 538.71 252.752 539.518 253.227 540.585C253.857 541.999 252.977 545.645 252.587 547.097C254.913 547.571 257.22 549.186 258.647 551.062L258.642 552.345C257.057 553.758 255.875 553.664 253.838 554.148C253.958 556.369 254.295 558.748 253.803 560.929C252.706 561.575 250.719 561.689 249.469 561.4C248.535 561.183 247.922 560.7 247.186 560.122Z"/>
	<path fill="#E5B3FE" transform="scale(0.39974 0.383757)" d="M239.58 548.595C240.038 548.252 240.512 547.625 241.114 547.777C242.451 548.115 244.028 549.69 244.999 550.688C244.557 551.411 244.346 551.323 243.58 551.606L238.234 552.218C238.565 550.933 239.034 549.803 239.58 548.595Z"/>
	<path fill="#F3C4FB" transform="scale(0.39974 0.383757)" d="M239.396 547.748C239.568 547.212 239.734 546.842 240 546.357C242.285 546.384 242.502 545.02 244.303 544.15C245.291 543.672 246.261 544.304 247.199 544.649C247.479 545.695 248.04 546.238 248.713 547.057C249.088 548.279 249.826 549.678 249.371 550.875C248.056 551.886 246.642 551.829 245.057 551.931L243.58 551.606C244.346 551.323 244.557 551.411 244.999 550.688C244.028 549.69 242.451 548.115 241.114 547.777C240.512 547.625 240.038 548.252 239.58 548.595L239.396 547.748Z"/>
	<path fill="#AD20DC" transform="scale(0.39974 0.383757)" d="M437.069 526.722L436.977 526.386C436.191 523.2 436.567 519.284 436.551 515.983L436.496 496.829L436.116 434.091L546.249 434.092L545.868 576.021L437.273 576.123L437.401 545.565L437.55 535.616C437.676 532.557 437.917 529.7 437.069 526.722Z"/>
	<path fill="#FFCBF2" transform="scale(0.39974 0.383757)" d="M437.069 526.722C438.196 526.39 439.582 525.765 440.683 526.384C442.862 527.609 446.274 530.506 446.853 532.972C447.104 534.043 445.625 535.763 445.506 536.985C444.493 536.309 444.11 536.35 442.924 536.264C441.202 536.184 440.224 536.471 438.939 535.188L437.55 535.616C437.676 532.557 437.917 529.7 437.069 526.722Z"/>
	<path fill="#FFC77A" transform="scale(0.39974 0.383757)" d="M438.939 535.188C439.608 534.308 439.822 533.696 441 533.507L442.317 533.438C443.146 534.444 442.961 534.974 442.924 536.264C441.202 536.184 440.224 536.471 438.939 535.188Z"/>
	<path fill="#FEECBB" transform="scale(0.39974 0.383757)" d="M437.55 535.616L438.939 535.188C440.224 536.471 441.202 536.184 442.924 536.264C444.11 536.35 444.493 536.309 445.506 536.985C446.572 538.187 447.527 539.195 448.063 540.75C447.693 542.015 446.495 542.775 445.333 543.377C443.883 544.127 442.779 544.565 441.75 545.925L437.401 545.565L437.55 535.616Z"/>
	<path fill="#FFCBF2" transform="scale(0.39974 0.383757)" d="M463.602 481.688C464.111 481.547 464.206 481.485 464.812 481.522C466.771 481.641 473.212 483.759 474.102 485.693C474.626 486.83 474.403 489.094 473.946 490.242C473.14 492.266 467.755 494.717 465.75 495.402C464.457 495.844 463.857 495.37 462.729 494.812C461.115 494.566 459.076 495.445 457.534 495.93C455.699 493.999 454.15 491.547 452.557 489.399C453.279 488.579 454.272 487.673 454.465 486.562C454.736 485.003 455.135 483.964 456.375 482.999C457.864 482.905 458.906 482.977 460.315 483.504L460.688 483.65C461.63 482.805 462.473 482.254 463.602 481.688Z"/>
	<path fill="#FFCBF2" transform="scale(0.39974 0.383757)" d="M515.399 519.188L515.899 519.093C517.829 518.864 519.871 520.758 521.385 521.795C522.312 521.022 523.36 520.008 524.441 519.492C525.643 518.917 528.548 519.074 529.688 519.747C530.425 520.182 530.902 521.016 531.647 521.438C532.53 521.937 533.687 521.953 534.628 522.339C535.808 522.824 536.676 523.926 537.042 525.129C537.643 527.105 536.76 529.464 535.712 531.117L535.299 531.75C535.707 532.664 536.247 533.729 536.233 534.75C536.215 536.002 535.731 537.423 534.738 538.224C533.937 538.871 533.16 539.123 532.125 538.92C531.555 538.808 530.959 538.47 530.444 538.206C530.144 538.019 529.015 537.165 528.75 537.149C528.412 537.129 526.901 537.949 526.5 538.102C524.599 538.828 520.675 539.895 518.728 539.07C517.195 538.42 516.65 537.314 516.135 535.82C515.854 535.003 515.666 534.472 515.073 533.812C512.649 533.129 510.779 533.69 508.518 534.579L507.898 534.825C507.882 532.784 508.036 530.537 507.524 528.552C507.307 527.709 507.203 527.054 507.175 526.181C508.483 524.639 509.652 523.823 511.198 522.562C512.734 521.311 513.491 520.039 515.399 519.188Z"/>
	<path fill="#ECBCFD" transform="scale(0.39974 0.383757)" d="M521.202 526.847C523.084 526.757 524.542 526.746 526.272 525.933C526.987 525.598 527.789 525.644 528.562 525.658C529.468 526.601 529.495 526.953 529.801 528.188C528.549 529.321 523.715 529.408 521.802 529.54L521.489 529.17C520.804 528.242 521.031 527.965 521.202 526.847Z"/>
	<defs>
		<linearGradient id="gradient_3" gradientUnits="userSpaceOnUse" x1="506.41101" y1="515.25598" x2="506.47198" y2="488.98999">
			<stop offset="0" stop-color="#FFF3C6"/>
			<stop offset="1" stop-color="#FDF"/>
		</linearGradient>
	</defs>
	<path fill="url(#gradient_3)" transform="scale(0.39974 0.383757)" d="M508.983 488.217L510.034 488.265C511.901 488.413 512.722 489.219 513.892 490.592L514.125 490.872C515.385 490.752 516.857 490.508 518.109 490.671C519.327 490.83 520.501 491.798 521.157 492.799C522.018 494.111 521.922 496.966 521.598 498.479C521.257 500.078 519.536 501.429 518.299 502.327L517.921 502.596L519.938 503.299C521.212 503.846 521.889 504.036 522.425 505.312C522.126 507.582 521.347 509.683 519.61 511.26C516.994 513.635 514.624 512.016 511.688 511.773C510.379 513.637 509.25 514.863 507.351 516.174C506.457 516.354 505.594 516.479 504.681 516.358C501.878 515.986 498.707 514.296 497.064 511.963C496.412 511.038 496.953 508.171 497.165 507.066C497.283 506.447 497.169 506.48 496.869 505.958C494.93 505.662 493.064 505.442 491.79 503.788C490.89 502.621 491.078 501.784 491.272 500.438C492.262 498.927 493.356 498.174 494.812 497.176L494.893 496.65L495.014 495.938L495.12 495.22C495.37 493.794 496.382 492.48 497.612 491.755C499.242 490.795 502.182 491.915 503.947 492.323C505.457 490.322 506.638 489.22 508.983 488.217Z"/>
	<path fill="#FFCBF2" transform="scale(0.39974 0.383757)" d="M474.849 507.562C475.319 507.416 475.533 507.326 476.062 507.284C477.271 507.186 478.126 507.552 479.059 508.246C479.998 508.945 480.158 509.556 480.327 510.66C480.438 511.384 480.483 511.843 480.889 512.476C482.012 512.326 483.11 512.161 484.218 512.482C485.913 512.972 488.593 513.909 489.437 515.603C489.942 516.618 489.493 518.079 489.137 519.116C488.479 521.038 487.787 521.718 486.045 522.562C486.893 523.787 488.632 523.662 489.266 524.848C488.136 524.9 486.977 524.764 486.004 525.375L485.955 527.25C485.768 528.6 484.73 529.672 483.667 530.438C481.178 532.23 478.364 532.143 475.485 531.557L474.742 531.395L471.078 534.49C469.139 535.259 467.238 535.824 465.188 535.214C463.3 533.402 462.804 531.444 462.212 528.994L459.938 528.46C457.842 527.991 456.289 527.478 455.069 525.574C454.304 524.379 454.3 523.524 454.623 522.188C456.185 520.649 457.406 520.143 459.601 520.069L460.922 520.021L461.438 520.007C461.478 518.538 461.233 516.955 461.489 515.513C461.819 513.647 462.98 512.452 464.438 511.359C466.222 511.045 467.897 511.22 469.558 511.972C470.276 512.297 470.369 512.402 471.188 512.389C471.895 510.066 472.723 508.78 474.849 507.562Z"/>
	<path fill="#FA71FA" transform="scale(0.39974 0.383757)" d="M474.784 520.922C474.254 522.271 473.766 522.76 472.5 523.442L471.812 522.938L471.81 519.938L472.874 519.339L474.247 519.562C474.47 520.028 474.643 520.422 474.784 520.922Z"/>
	<path fill="#E5B3FE" transform="scale(0.39974 0.383757)" d="M472.874 519.339C474.004 519.069 474.526 519.007 475.688 519.322C476.889 518.961 477.808 518.564 478.875 517.9C480.457 518.047 481.879 518.572 483.375 519.071L483.745 519.75C482.764 520.602 482.236 520.461 480.938 520.407C478.867 520.32 476.77 520.176 474.784 520.922C474.643 520.422 474.47 520.028 474.247 519.562L472.874 519.339Z"/>
	<path fill="#FFCBF2" transform="scale(0.39974 0.383757)" d="M465.931 540.938L467.062 540.83C468.473 542.021 469.56 543.331 470.702 544.765C473.02 544.712 474.884 542.965 477.375 543.019C479.289 544.599 479.116 548.802 480.262 551.15L480.455 551.528L477.125 555.407C477.586 557.307 479.144 558.839 479.597 560.753C479.746 561.384 479.349 562.095 479.009 562.626C477.997 564.21 476.214 565.311 474.375 565.622C473.714 565.734 472.257 565.714 471.712 565.98C469.154 567.227 468.023 569.461 464.861 570.136C462.756 570.043 460.421 569.841 458.62 568.623C456.39 567.116 457.348 564.191 456.828 561.938C455.777 561.858 454.778 562.117 453.75 562.055C452.296 561.966 451.846 561.633 450.848 560.625C450.601 558.696 450.718 556.972 451.367 555.128L451.64 554.325C451.812 553.158 450.278 551.972 449.524 551.134C450.187 550.63 454.492 548.416 454.6 548.173C455.292 546.608 454.577 544.49 455.649 542.812C456.234 541.897 456.66 541.741 457.688 541.573C459.622 542.224 460.906 543.541 462.375 544.888C463.485 543.43 464.601 542.192 465.931 540.938Z"/>
	<path fill="#DEAAFF" transform="scale(0.39974 0.383757)" d="M463.078 555.528C465.485 554.39 466.957 554.855 469.436 555.786C470.273 556.101 470.987 556.488 471.729 556.993L470.438 557.685C468.258 557.43 464.65 557.119 463.078 555.528Z"/>
	<path fill="#FFCBF2" transform="scale(0.39974 0.383757)" d="M493.464 547.068C495.083 546.639 496.684 546.716 498.345 546.721L500.476 539.303C503.35 540.147 505.432 540.741 507.188 543.368L508.53 542.387C509.482 541.647 510.431 541.118 511.688 541.246C512.351 541.314 512.97 541.519 513.333 542.092C514.006 543.154 513.941 545.259 514.049 546.514L517.763 545.865C518.992 545.658 520.18 545.603 521.281 546.295C522.651 547.156 523.741 549.086 524.639 550.423C524.227 551.66 523.855 552.988 523.312 554.171C522.83 555.222 522.026 556.143 521.794 557.296C521.527 558.628 521.844 560.396 521.471 561.617C521.181 562.565 520.358 563.069 519.525 563.469C516.934 564.714 514.201 564.76 511.43 564.304C511.176 564.262 509.805 563.953 509.672 563.99C509.479 564.043 509.409 564.293 509.277 564.444C507.606 566.347 506.096 567.548 503.438 567.701C501.46 567.814 499.24 567.24 497.79 565.848C496.662 564.765 496.435 563.903 496.512 562.391C496.561 561.43 496.849 560.553 497.15 559.647C494.946 559.585 493.247 559.651 491.533 558.086C491.086 557.295 491.004 556.793 491.07 555.88C491.247 553.437 491.573 548.664 493.464 547.068Z"/>
	<path fill="#F3C4FB" transform="scale(0.39974 0.383757)" d="M508.591 553.574L507.568 553.369L507.214 553.312C506.155 551.665 505.891 551.307 505.829 549.375L506.438 548.934L507.671 549.5C508.414 550.983 508.732 551.908 508.591 553.574Z"/>
</svg>
