<?xml version="1.0" standalone="no"?>
<!DOCTYPE svg PUBLIC "-//W3C//DTD SVG 20010904//EN"
 "http://www.w3.org/TR/2001/REC-SVG-20010904/DTD/svg10.dtd">
<svg version="1.0" xmlns="http://www.w3.org/2000/svg"
 width="420.000000pt" height="98.000000pt" viewBox="0 0 420.000000 98.000000"
 preserveAspectRatio="xMidYMid meet">

<g transform="translate(0.000000,98.000000) scale(0.100000,-0.100000)"
fill="#000000" stroke="none">
<path d="M156 731 c-4 -5 -4 -16 0 -24 4 -11 16 -13 50 -9 39 4 44 2 44 -16 0
-21 -18 -32 -51 -32 -34 0 -20 -28 19 -37 27 -6 37 -14 37 -28 0 -17 -7 -20
-52 -20 -41 1 -53 -3 -56 -16 -3 -10 2 -20 10 -23 29 -12 109 -6 131 10 26 18
29 60 5 86 -13 14 -14 21 -5 30 18 18 14 53 -6 71 -20 18 -116 24 -126 8z"/>
<path d="M376 643 c-10 -69 -16 -83 -32 -83 -10 0 -14 -13 -14 -45 0 -38 3
-45 20 -45 15 0 20 7 20 25 0 24 2 25 65 25 63 0 65 -1 65 -26 0 -19 5 -25 18
-22 23 4 30 75 8 84 -12 5 -16 21 -16 70 l0 64 -64 0 -64 0 -6 -47z m84 -38
c0 -43 -1 -45 -28 -45 l-28 0 10 45 c8 32 15 45 28 45 15 0 18 -9 18 -45z"/>
<path d="M585 665 c-33 -32 -35 -95 -3 -125 31 -28 118 -29 118 -1 0 16 -8 20
-42 23 -63 5 -62 28 1 28 50 0 51 1 51 30 0 65 -78 93 -125 45z m83 -32 c2 -9
-7 -13 -27 -13 -30 0 -39 9 -24 24 11 10 46 3 51 -11z"/>
<path d="M774 667 c-35 -30 -37 -102 -3 -129 29 -24 114 -25 105 -2 -3 9 -6
18 -6 20 0 2 -13 4 -28 4 -33 0 -52 16 -52 45 0 29 19 45 52 45 21 0 28 5 28
20 0 29 -60 27 -96 -3z"/>
<path d="M910 605 l0 -85 51 0 c66 0 89 13 89 50 0 34 -31 60 -72 60 -24 0
-28 4 -28 30 0 23 -4 30 -20 30 -18 0 -20 -7 -20 -85z m95 -35 c0 -23 -49 -20
-53 3 -3 15 2 18 25 15 17 -2 28 -9 28 -18z"/>
<path d="M1170 605 c0 -78 2 -85 20 -85 16 0 19 8 22 63 3 59 4 62 28 62 24 0
25 -3 28 -62 3 -55 6 -63 22 -63 18 0 20 7 20 85 l0 85 -70 0 -70 0 0 -85z"/>
<path d="M1375 665 c-31 -30 -33 -82 -4 -119 46 -58 139 -19 139 59 0 73 -85
111 -135 60z m80 -60 c0 -33 -4 -41 -22 -43 -29 -4 -46 28 -33 63 7 20 16 26
33 23 19 -3 22 -9 22 -43z"/>
<path d="M1550 605 c0 -78 2 -85 20 -85 16 0 20 7 20 30 0 17 4 30 10 30 5 0
19 -13 32 -30 13 -18 31 -30 45 -30 31 0 29 8 -11 52 l-35 37 37 38 c36 37 36
38 13 41 -16 3 -34 -7 -57 -29 l-34 -33 0 32 c0 25 -4 32 -20 32 -18 0 -20 -7
-20 -85z"/>
<path d="M1747 683 c-17 -17 -4 -32 30 -35 48 -4 57 -28 10 -28 -58 0 -86 -50
-48 -84 14 -13 33 -16 72 -14 l54 3 0 68 c0 56 -3 71 -19 83 -20 14 -87 19
-99 7z m73 -114 c0 -15 -5 -20 -22 -17 -34 5 -37 38 -4 38 20 0 26 -5 26 -21z"/>
<path d="M1997 683 c-4 -3 -7 -42 -7 -85 0 -77 0 -78 25 -78 22 0 25 4 25 35
0 31 3 35 25 35 22 0 25 -4 25 -35 0 -31 3 -35 25 -35 25 0 25 1 25 85 0 84 0
85 -25 85 -22 0 -25 -4 -25 -35 0 -31 -3 -35 -25 -35 -22 0 -25 4 -25 35 0 27
-4 35 -18 35 -10 0 -22 -3 -25 -7z"/>
<path d="M2180 606 c0 -79 2 -86 20 -86 12 0 32 18 52 48 l33 47 3 -47 c3 -40
6 -48 23 -48 17 0 19 7 19 85 0 76 -2 85 -18 85 -11 0 -33 -20 -51 -45 -18
-25 -33 -45 -35 -45 -1 0 -2 19 -2 43 1 36 -2 42 -21 45 -22 3 -23 1 -23 -82z"/>
<path d="M2370 654 c0 -53 15 -73 60 -80 34 -6 40 -10 40 -30 0 -17 6 -24 20
-24 18 0 20 7 20 85 0 78 -2 85 -20 85 -17 0 -20 -7 -20 -41 0 -36 -2 -40 -22
-37 -19 2 -24 10 -26 41 -3 32 -7 37 -28 37 -21 0 -24 -5 -24 -36z"/>
<path d="M2592 683 c-23 -9 -44 -64 -37 -99 8 -43 38 -64 92 -64 68 0 68 36
-1 42 -64 5 -57 28 8 28 53 0 56 1 56 25 0 51 -66 89 -118 68z m66 -50 c2 -9
-7 -13 -27 -13 -30 0 -39 9 -24 24 11 10 46 3 51 -11z"/>
<path d="M2750 605 c0 -78 2 -85 20 -85 18 0 20 7 20 65 l0 65 35 0 c28 0 35
4 35 20 0 18 -7 20 -55 20 l-55 0 0 -85z"/>
<path d="M2913 668 c-27 -30 -34 -63 -21 -99 25 -72 136 -64 151 10 8 37 -9
88 -33 101 -32 17 -75 11 -97 -12z m80 -39 c17 -27 0 -69 -27 -69 -24 0 -36
17 -36 49 0 38 43 52 63 20z"/>
<path d="M3160 605 c0 -84 0 -85 25 -85 22 0 25 4 25 35 0 31 3 35 25 35 22 0
25 -4 25 -35 0 -31 3 -35 25 -35 25 0 25 1 25 85 0 84 0 85 -25 85 -22 0 -25
-4 -25 -35 0 -31 -3 -35 -25 -35 -22 0 -25 4 -25 35 0 31 -3 35 -25 35 -25 0
-25 -1 -25 -85z"/>
<path d="M3382 683 c-7 -3 -19 -18 -27 -33 -36 -70 1 -130 79 -130 25 0 47 4
50 8 10 16 -10 31 -48 34 -65 5 -57 28 9 28 l58 0 -7 33 c-10 53 -63 81 -114
60z m66 -50 c2 -9 -7 -13 -27 -13 -30 0 -39 9 -24 24 11 10 46 3 51 -11z"/>
<path d="M3520 670 c0 -15 7 -20 25 -20 24 0 25 -2 25 -65 0 -63 1 -65 25 -65
24 0 25 2 25 65 0 63 1 65 25 65 18 0 25 5 25 20 0 18 -7 20 -75 20 -68 0 -75
-2 -75 -20z"/>
<path d="M3699 535 c-1 -19 -2 -41 -3 -47 -1 -7 6 -14 15 -16 11 -2 20 8 28
29 18 52 14 69 -14 69 -22 0 -25 -5 -26 -35z"/>
<path d="M3980 457 c0 -1 9 -20 20 -42 27 -52 27 -145 0 -204 -23 -50 -24 -55
-9 -45 22 13 49 90 49 142 0 53 -33 152 -51 152 -5 0 -9 -1 -9 -3z"/>
<path d="M359 361 c-52 -53 -25 -141 44 -141 38 0 50 7 66 37 24 47 10 97 -36
121 -32 17 -41 15 -74 -17z m81 -11 c11 -11 20 -33 20 -50 0 -31 -30 -70 -53
-70 -31 0 -52 28 -52 70 0 64 45 90 85 50z"/>
<path d="M634 378 c-61 -29 -54 -134 10 -157 87 -33 135 119 49 158 -28 13
-31 13 -59 -1z m66 -28 c37 -37 13 -120 -35 -120 -25 0 -55 38 -55 70 0 32 30
70 55 70 8 0 24 -9 35 -20z"/>
<path d="M993 380 c-29 -12 -43 -40 -43 -88 0 -50 23 -72 78 -72 23 0 42 5 42
10 0 6 -11 8 -25 4 -32 -8 -75 19 -75 46 0 18 7 20 55 20 50 0 55 2 55 23 0
28 -9 41 -37 56 -25 13 -21 12 -50 1z m55 -22 c7 -7 12 -20 12 -30 0 -15 -8
-18 -45 -18 -49 0 -59 15 -29 44 18 19 45 21 62 4z"/>
<path d="M1573 366 c-34 -29 -39 -92 -9 -125 20 -22 96 -31 96 -11 0 5 -12 7
-27 5 -42 -8 -66 16 -66 66 0 49 23 72 66 66 33 -4 36 8 5 17 -33 8 -34 8 -65
-18z"/>
<path d="M1894 378 c-59 -28 -55 -135 5 -156 91 -32 143 117 54 157 -28 13
-31 13 -59 -1z m66 -28 c37 -37 13 -120 -35 -120 -25 0 -55 38 -55 70 0 32 30
70 55 70 8 0 24 -9 35 -20z"/>
<path d="M2073 383 c-22 -4 -23 -8 -23 -114 0 -66 4 -109 10 -109 6 0 10 14
10 30 0 28 2 30 38 30 64 0 98 60 67 119 -14 28 -53 54 -73 50 -4 -1 -17 -4
-29 -6z m65 -30 c20 -18 25 -35 23 -80 -1 -28 -35 -47 -67 -39 -22 6 -24 11
-24 71 0 62 1 65 24 65 13 0 33 -8 44 -17z"/>
<path d="M2272 380 c-12 -5 -30 -26 -39 -45 -17 -35 -17 -38 2 -73 18 -32 25
-37 62 -40 50 -4 73 22 73 79 0 60 -48 98 -98 79z m62 -29 c27 -30 18 -91 -16
-110 -24 -14 -28 -14 -47 3 -14 13 -21 31 -21 57 0 62 48 90 84 50z"/>
<path d="M2712 380 c-12 -5 -30 -26 -39 -45 -17 -35 -17 -38 2 -73 18 -32 25
-37 62 -40 50 -4 73 22 73 79 0 60 -48 98 -98 79z m56 -26 c19 -13 22 -24 20
-57 -2 -33 -9 -44 -30 -57 -26 -14 -29 -13 -47 5 -29 30 -31 83 -5 109 20 20
34 20 62 0z"/>
<path d="M2888 379 c-35 -13 -44 -43 -23 -75 14 -22 14 -27 0 -46 -17 -25 -19
-38 -6 -38 5 0 14 14 21 30 10 24 19 30 41 30 26 0 29 -4 29 -30 0 -16 5 -30
10 -30 6 0 10 33 10 79 0 73 -2 79 -22 85 -27 7 -26 7 -60 -5z m62 -45 c0 -34
-1 -35 -31 -32 -43 4 -61 34 -35 54 11 8 30 14 43 14 20 0 23 -5 23 -36z"/>
<path d="M3048 383 c-15 -4 -18 -17 -18 -84 l0 -79 55 0 c49 0 57 3 67 25 9
20 8 28 -6 44 -11 12 -14 21 -7 26 15 9 14 40 -2 54 -17 13 -65 21 -89 14z
m72 -23 c23 -15 -1 -44 -39 -48 -29 -3 -31 -1 -31 27 0 27 3 31 28 31 15 0 34
-5 42 -10z m1 -70 c10 -6 19 -15 19 -20 0 -18 -33 -40 -61 -40 -27 0 -29 3
-29 35 0 31 3 35 26 35 14 0 34 -5 45 -10z"/>
<path d="M3564 378 c-51 -24 -57 -119 -10 -150 16 -11 86 -10 86 2 0 5 -13 7
-29 4 -60 -12 -96 71 -50 117 14 14 29 19 45 16 27 -5 33 7 8 17 -20 8 -24 7
-50 -6z"/>
<path d="M3703 380 c-36 -15 -46 -44 -24 -71 18 -22 18 -24 -1 -56 -11 -18
-16 -33 -11 -33 5 0 17 14 26 30 14 23 25 30 48 30 26 0 29 -3 29 -30 0 -16 5
-30 10 -30 6 0 10 33 10 80 0 57 -4 80 -12 80 -7 0 -22 2 -33 5 -11 2 -30 0
-42 -5z m67 -45 c0 -30 -3 -35 -24 -35 -39 0 -56 11 -56 35 0 26 11 33 53 34
24 1 27 -2 27 -34z"/>
<path d="M160 300 c0 -47 4 -80 10 -80 6 0 10 18 10 40 l0 40 45 0 45 0 0 -40
c0 -22 5 -40 10 -40 6 0 10 33 10 80 0 47 -4 80 -10 80 -5 0 -10 -16 -10 -35
0 -35 0 -35 -45 -35 -45 0 -45 0 -45 35 0 19 -4 35 -10 35 -6 0 -10 -33 -10
-80z"/>
<path d="M781 345 c-1 -51 12 -65 61 -65 36 0 38 -2 38 -30 0 -16 5 -30 10
-30 6 0 10 33 10 80 0 47 -4 80 -10 80 -5 0 -10 -18 -10 -40 0 -39 -1 -40 -34
-40 -38 0 -45 7 -57 54 -7 30 -7 30 -8 -9z"/>
<path d="M1130 300 c0 -47 4 -80 10 -80 6 0 10 18 10 40 l0 40 45 0 45 0 0
-40 c0 -22 5 -40 10 -40 6 0 10 33 10 80 0 47 -4 80 -10 80 -5 0 -10 -16 -10
-35 0 -35 0 -35 -45 -35 -45 0 -45 0 -45 35 0 19 -4 35 -10 35 -6 0 -10 -33
-10 -80z"/>
<path d="M1320 300 l0 -80 48 0 c55 0 72 12 72 52 0 32 -24 48 -69 48 -28 0
-31 3 -31 30 0 17 -4 30 -10 30 -6 0 -10 -33 -10 -80z m97 -16 c10 -26 -11
-49 -46 -52 -30 -3 -31 -2 -31 32 0 34 2 36 35 36 24 0 38 -5 42 -16z"/>
<path d="M1700 300 c0 -47 4 -80 10 -80 6 0 10 19 10 42 l0 42 45 -44 c24 -24
47 -41 51 -38 3 4 -12 24 -34 46 l-40 40 34 33 c18 18 31 35 29 38 -3 2 -23
-13 -45 -34 l-40 -39 0 37 c0 20 -4 37 -10 37 -6 0 -10 -33 -10 -80z"/>
<path d="M2490 300 c0 -47 4 -80 10 -80 6 0 10 32 10 75 l0 75 45 0 45 0 0
-75 c0 -43 4 -75 10 -75 6 0 10 33 10 80 l0 80 -65 0 -65 0 0 -80z"/>
<path d="M3200 300 c0 -96 12 -102 55 -29 16 28 38 58 47 66 17 15 18 12 18
-50 0 -38 4 -67 10 -67 6 0 10 33 10 80 0 101 -13 104 -72 18 l-43 -63 -3 63
c-4 90 -22 76 -22 -18z"/>
<path d="M3393 373 c27 -4 27 -5 27 -79 0 -43 4 -74 10 -74 6 0 10 31 10 74
l0 75 33 4 c17 2 1 4 -38 4 -38 0 -58 -2 -42 -4z"/>
<path d="M3920 364 c0 -17 22 -14 28 4 2 7 -3 12 -12 12 -9 0 -16 -7 -16 -16z"/>
<path d="M3918 213 c-3 -21 -3 -40 -1 -43 8 -9 23 25 23 53 0 40 -17 33 -22
-10z"/>
</g>
</svg>
